<svg width="16" height="22" viewBox="0 0 16 22" fill="none" xmlns="http://www.w3.org/2000/svg">
<g clip-path="url(#clip0_9214_2800)">
<path d="M8.89029 22C9.43969 22 9.88507 21.5666 9.88507 21.032C9.88507 20.4974 9.43969 20.064 8.89029 20.064C8.34089 20.064 7.89551 20.4974 7.89551 21.032C7.89551 21.5666 8.34089 22 8.89029 22Z" fill="#ffffff"/>
<path d="M14.6086 14.432L8.99818 15.0176C8.89383 15.0277 8.84165 14.9025 8.92513 14.8382L14.4138 10.6785C14.7686 10.3942 14.9982 9.95417 14.9008 9.48032C14.8034 8.75602 14.1877 8.28217 13.4086 8.37694L7.44339 9.22648C7.33904 9.24002 7.28339 9.1114 7.36687 9.04709L13.2799 4.65386C14.4451 3.77048 14.5425 2.03755 13.4747 1.02894C12.5043 0.0846309 10.946 0.115092 9.97557 1.0594L0.448609 10.4923C0.0938268 10.8714 -0.0696515 11.3757 0.0277398 11.9105C0.191218 12.7634 1.06426 13.3286 1.94078 13.1729L7.07817 12.1542C7.18948 12.1305 7.24861 12.276 7.1547 12.3369L1.45731 15.8874C0.744262 16.3274 0.420783 17.116 0.64687 17.9046C0.872957 18.9437 1.94426 19.5428 2.98078 19.2923L11.499 17.2514C11.5964 17.2277 11.666 17.336 11.6034 17.4105L10.2747 19.008C9.91991 19.448 10.5008 20.0471 10.9877 19.7019L15.3634 16.2022C16.1425 15.5726 15.6243 14.3406 14.619 14.4354L14.6086 14.432Z" fill="#ffffff"/>
</g>
<defs>
<clipPath id="clip0_9214_2800">
<rect width="16" height="22" fill="white"/>
</clipPath>
</defs>
</svg>
