<svg width="40" height="40" viewBox="0 0 40 40" fill="none" xmlns="http://www.w3.org/2000/svg">
<mask id="path-1-inside-1_22_1854" fill="white">
<path d="M19.3161 0.49622C19.5635 0.355106 19.7731 0.285156 19.9865 0.285156H20.001C20.2189 0.288391 20.436 0.364002 20.6971 0.509563L30.6228 6.09143C31.5277 6.6478 32.1288 7.63033 32.1288 8.74873V8.74873C32.1288 10.9453 29.7628 12.3284 27.8487 11.2507L19.9188 6.78568C19.8183 6.73149 19.7117 6.70279 19.6112 6.70279C19.5344 6.70279 19.4614 6.71977 19.3979 6.75333C19.3352 6.78648 19.2816 6.83784 19.2418 6.90698C19.1957 6.98744 19.1679 7.09459 19.1679 7.22883L19.1675 15.0139V15.0139C19.1677 15.055 19.1372 15.0898 19.0965 15.0949L19.0944 15.0952L19.0886 15.096L19.0085 15.1061L18.928 15.1166L18.9176 15.1182L18.8391 15.13L18.7619 15.1417L18.7412 15.1453L18.6611 15.1591L18.5826 15.1728L18.5781 15.174L18.4963 15.1894L18.4162 15.206L18.4029 15.2084L18.3248 15.2254L18.246 15.244L18.2397 15.2452C17.8828 15.3285 17.5353 15.4377 17.1995 15.5699C17.131 15.5966 17.0659 15.6237 17.0044 15.6499C16.9404 15.6769 16.8768 15.7055 16.814 15.7344C16.8134 15.7347 16.8127 15.7349 16.8121 15.7351V15.7351C16.8114 15.7352 16.8107 15.7354 16.81 15.7357L16.7388 15.7692L16.6665 15.8044L16.6558 15.8089L16.5918 15.8408L16.5271 15.8739L16.4984 15.8885L16.4358 15.9213L16.3743 15.9544L16.3531 15.9657C16.3262 15.9803 16.2959 15.9973 16.2639 16.0155L16.2456 16.0256L16.2282 16.0357L16.2083 16.047L16.1444 16.0838L16.0796 16.1226L16.0705 16.1279L16.0049 16.1683L15.9389 16.2091L15.9314 16.2148C15.7338 16.3393 15.5429 16.4736 15.3582 16.6163C15.3183 16.6474 15.2826 16.6753 15.2515 16.7004C15.2199 16.7255 15.1838 16.755 15.1465 16.7865L15.1452 16.7873L15.139 16.7926L15.0796 16.8423L15.0224 16.8925L15.0136 16.8998L14.9618 16.9458L14.9103 16.9919L14.8845 17.0158L14.8343 17.0619L14.7849 17.1084L14.7667 17.1258L14.7185 17.1723L14.6708 17.2196L14.6421 17.2479L14.6006 17.2899L14.5595 17.3324L14.5193 17.3744L14.4832 17.4129L14.447 17.4517L14.4001 17.503L14.3657 17.541L14.3325 17.5782L14.2972 17.6191L14.2582 17.6635L14.2204 17.708L14.193 17.742L14.1532 17.7897L14.115 17.8366L14.0926 17.8653C14.0037 17.9769 13.9174 18.0921 13.8348 18.2106L13.7862 18.2806L13.7389 18.3497L13.7252 18.3707L13.6679 18.4581L13.6293 18.5191L13.5874 18.5866L13.5807 18.5974C13.5804 18.5978 13.5803 18.5982 13.5801 18.5986V18.5986C13.58 18.599 13.5798 18.5994 13.5796 18.5997L13.5421 18.6618C13.5263 18.6875 13.5155 18.7063 13.5055 18.7236C13.5029 18.7282 13.5003 18.7326 13.4977 18.7371L13.4944 18.7431L13.4566 18.809L13.4338 18.8499L13.4106 18.8911L13.374 18.9594L13.3333 19.0367L13.2947 19.1123L13.2545 19.1927L13.2204 19.2643L13.1835 19.3436L13.1569 19.4026L13.1117 19.5045L13.081 19.5781L13.049 19.6553C13.0387 19.6809 13.0311 19.7004 13.0245 19.7173C13.021 19.7263 13.0177 19.7346 13.0146 19.7426L13.0104 19.754L13.01 19.7556L12.9863 19.8166C12.9685 19.8648 12.9535 19.906 12.9386 19.948L12.9282 19.9776L12.9033 20.0507L12.8788 20.1264L12.8547 20.2024L12.8386 20.2561L12.8224 20.3087L12.8066 20.3645L12.7991 20.3904L12.7771 20.4713L12.7584 20.5448L12.7331 20.6439L12.7173 20.713C12.7111 20.7393 12.7049 20.7664 12.6958 20.8101L12.6792 20.8877L12.6605 20.9844L12.6472 21.06L12.6306 21.1554L12.6181 21.2359L12.604 21.3321L12.5937 21.4101L12.5824 21.5051L12.5733 21.5884L12.5646 21.6847L12.558 21.7655L12.5521 21.8565L12.5513 21.867L12.5501 21.8808L12.5463 21.943L12.5426 22.0449L12.5418 22.0623L12.5397 22.123L12.538 22.2127L12.5372 22.3029L12.538 22.3959L12.5397 22.4897L12.5401 22.4925L12.5426 22.5831L12.5472 22.6765V22.6765C12.5472 22.6773 12.5472 22.6781 12.5473 22.6789L12.5476 22.6806L12.5526 22.7691L12.5592 22.8617L12.5671 22.9547L12.5758 23.042L12.5762 23.0457C12.5883 23.1658 12.6044 23.2867 12.6235 23.4088L12.6376 23.4969L12.6537 23.5839C12.6538 23.5844 12.6538 23.5849 12.6538 23.5854V23.5854C12.6538 23.5862 12.654 23.5871 12.6543 23.5879L12.6544 23.5882C12.6546 23.5888 12.6547 23.5894 12.6548 23.5901L12.6551 23.5923L12.6709 23.6776L12.6887 23.7654L12.6891 23.7674C12.707 23.8511 12.7256 23.9344 12.7464 24.0169L12.7589 24.0654L12.7716 24.1138C12.7717 24.1141 12.7717 24.1145 12.7717 24.1149V24.1149C12.7717 24.1153 12.7718 24.1157 12.7719 24.1162L12.7726 24.1184L12.7962 24.2053L12.8203 24.2906L12.8207 24.2918C12.8304 24.3254 12.841 24.359 12.8511 24.3921C12.8531 24.3989 12.8552 24.4056 12.8572 24.4123L12.8643 24.4358L12.8715 24.4589C12.8717 24.4594 12.8719 24.4599 12.8721 24.4603V24.4603C12.8724 24.4609 12.8727 24.4616 12.8728 24.4622L12.873 24.4629L12.9008 24.5482L12.9278 24.6277C12.9283 24.6294 12.929 24.6311 12.9299 24.6327V24.6327L12.9589 24.7156L12.9886 24.7959C12.9888 24.7963 12.989 24.7966 12.9892 24.7968V24.7968C12.9895 24.7971 12.9897 24.7975 12.9898 24.7979L12.9905 24.8001L13.0208 24.8797L13.0519 24.9586L13.0569 24.9699L13.0884 25.0467L13.1221 25.1248L13.1237 25.1288V25.1288C13.1411 25.1675 13.1261 25.2131 13.0891 25.2339L11.3125 26.233C9.77119 27.0998 7.86698 25.986 7.86698 24.2177V8.74873C7.86698 7.59516 8.5054 6.58715 9.45679 6.04089L9.51158 6.01056L19.3161 0.49622Z"/>
<path d="M20.8349 13.0106C20.8349 11.2671 22.7124 10.1689 24.2321 11.0235L38.1024 18.824C39.1277 19.4006 39.7046 20.4438 39.7146 21.5193V32.6086C39.7171 32.8945 39.6723 33.1092 39.5602 33.292C39.4485 33.4743 39.2725 33.6195 39.0123 33.7671L29.087 39.3493C28.1397 39.8345 26.9663 39.8507 25.9713 39.2907L21.7315 36.9067V36.9067C21.6758 36.8753 21.6757 36.7948 21.7315 36.7636V36.7636L33.8219 29.9728C33.9203 29.9149 33.9984 29.8393 34.049 29.7544C34.0872 29.6893 34.1096 29.6194 34.1108 29.5494C34.1125 29.4799 34.0942 29.4087 34.0527 29.3412C34.0037 29.2611 33.9228 29.1847 33.8033 29.1176L26.882 25.225L26.881 25.2245C26.845 25.2044 26.83 25.1603 26.8463 25.1223V25.1223L26.8484 25.1167L26.8799 25.0443L26.9102 24.9711L26.943 24.8894L26.9708 24.8183L26.9779 24.7993L27.0061 24.7245L27.0331 24.6513L27.0343 24.6472L27.0609 24.5704L27.0866 24.4948L27.0912 24.4823L27.1153 24.4075L27.1385 24.3323L27.1402 24.3266C27.244 23.9837 27.3212 23.6356 27.3718 23.2862C27.3818 23.2151 27.3905 23.1472 27.398 23.0821C27.4058 23.0137 27.4125 22.9458 27.4187 22.8779V22.8758L27.4249 22.7982L27.4299 22.7194L27.4303 22.708L27.4345 22.6381L27.4378 22.5669L27.439 22.5358L27.4411 22.4663L27.4428 22.3745C27.4432 22.3445 27.4436 22.3106 27.4432 22.2742V22.2119L27.442 22.1395L27.4403 22.0656L27.4399 22.055L27.4374 21.9798L27.4337 21.9034L27.4328 21.8941C27.42 21.6657 27.3963 21.4368 27.3618 21.21C27.3548 21.1606 27.3473 21.1166 27.3407 21.0778C27.3341 21.0392 27.3258 20.9942 27.3167 20.9471C27.3166 20.9466 27.3166 20.9461 27.3166 20.9456V20.9456C27.3166 20.945 27.3165 20.9445 27.3164 20.9439L27.3149 20.9366L27.3 20.8622L27.2842 20.7887L27.2821 20.7777L27.2672 20.7106L27.2518 20.6439L27.2435 20.6103L27.2282 20.5457L27.2112 20.4802L27.2049 20.4559L27.1697 20.3281L27.1584 20.2901L27.1418 20.2335L27.1078 20.1235L27.0916 20.0738L27.075 20.0233L27.053 19.9586L27.0194 19.8635L27.0007 19.8134L26.9808 19.7584L26.96 19.7042L26.9443 19.6638L26.9214 19.6068L26.8986 19.551L26.8845 19.5178C26.8297 19.3872 26.7703 19.257 26.7064 19.1276L26.6311 18.9776C26.6309 18.9774 26.6307 18.9772 26.6304 18.977V18.977C26.6302 18.9769 26.63 18.9767 26.6298 18.9764L26.6296 18.976L26.6188 18.9554L26.5943 18.9089L26.5694 18.8632L26.5346 18.7997L26.496 18.731L26.4889 18.7193L26.4885 18.7185L26.4515 18.655C26.4324 18.6222 26.4196 18.6012 26.4067 18.5802L26.403 18.5741L26.3635 18.509L26.3391 18.4698L26.3129 18.4294L26.271 18.3643L26.2228 18.2911L26.1747 18.2211L26.1228 18.1471L26.0771 18.0824L26.0248 18.0117L25.9854 17.9599L25.9754 17.947L25.9173 17.871L25.8675 17.8079L25.8148 17.7424C25.7874 17.7096 25.7708 17.6894 25.7542 17.67L25.7466 17.6607C25.7464 17.6604 25.7462 17.6602 25.7459 17.6601V17.6601C25.7456 17.66 25.7454 17.6598 25.7452 17.6596L25.7027 17.609C25.6691 17.5697 25.6396 17.5366 25.6097 17.503L25.5886 17.4796L25.5363 17.4217L25.4815 17.3631L25.4254 17.3049L25.347 17.2244L25.3051 17.1832L25.2855 17.1642L25.2254 17.1052L25.1693 17.0526L25.0938 16.9814L25.0402 16.9337C25.0199 16.9151 24.9987 16.8965 24.9647 16.867L24.9041 16.814L24.8273 16.7506L24.7667 16.7008L24.6903 16.6394L24.6251 16.5888L24.5463 16.5286L24.4823 16.4809L24.4035 16.4238L24.3337 16.3745L24.2528 16.3191L24.1839 16.273L24.1171 16.2298L24.1058 16.2225L24.0971 16.2164L24.0859 16.2091L24.032 16.1752L23.9435 16.1202L23.8755 16.0789L23.7962 16.0324L23.7169 15.9868L23.6339 15.9411L23.5503 15.896C23.5496 15.8956 23.5488 15.8953 23.548 15.8952V15.8952C23.5471 15.895 23.5463 15.8948 23.5456 15.8944L23.4649 15.8513L23.3799 15.8084V15.8084C23.379 15.8079 23.3781 15.8075 23.3772 15.8072L23.3768 15.8071C23.3761 15.8069 23.3754 15.8067 23.3747 15.8063L23.2943 15.7668L23.2088 15.726L23.1225 15.6863L23.0403 15.6495L23.0366 15.6479C22.9241 15.599 22.8087 15.5517 22.6904 15.5068L22.6053 15.4749L22.5189 15.4441V15.4441C22.5178 15.4439 22.5168 15.4435 22.5157 15.4431L22.5144 15.4425L22.5119 15.4413L22.4276 15.4122L22.3409 15.3835V15.3835C22.3403 15.3832 22.3397 15.383 22.3391 15.3829L22.3384 15.3827C22.2554 15.356 22.1715 15.3305 22.0881 15.3063L22.0391 15.2925L21.9895 15.2793C21.9891 15.2792 21.9887 15.279 21.9884 15.2787V15.2787C21.9882 15.2785 21.9879 15.2783 21.9875 15.2782L21.9856 15.2776L21.8963 15.2541L21.8079 15.2319L21.8066 15.2315C21.7647 15.2214 21.7228 15.2112 21.6809 15.2019L21.6568 15.1967L21.6319 15.191V15.191C21.6311 15.1908 21.6302 15.1905 21.6294 15.1904L21.6282 15.1902L21.5389 15.1712L21.4517 15.1534L21.4493 15.153L21.3613 15.1364L21.2737 15.1211L21.2699 15.1207L21.1844 15.1061L21.0981 15.0936L21.0856 15.0916L21.0018 15.0802L20.9159 15.0693L20.9109 15.0685V15.0685C20.8677 15.0639 20.8349 15.0275 20.8349 14.984V13.0106Z"/>
<path d="M1.89628 18.8256C3.84904 17.7273 6.26156 19.1393 6.26034 21.3797L6.25559 30.1074C6.25767 30.2194 6.28589 30.3237 6.33612 30.4082C6.37514 30.4733 6.42619 30.5267 6.48721 30.5627C6.54865 30.5991 6.62129 30.6189 6.70223 30.6181C6.79729 30.6165 6.90604 30.5861 7.02517 30.5194L13.9471 26.6267C13.9837 26.6061 14.03 26.6153 14.056 26.6483V26.6483L14.0598 26.6523L14.1083 26.715L14.1581 26.7777L14.1644 26.7858L14.2142 26.846L14.2636 26.9051L14.2769 26.9212L14.3292 26.9819L14.3806 27.0409L14.3839 27.0446L14.4387 27.1052L14.4931 27.165L14.5022 27.1748L14.5566 27.2322L14.6122 27.2896L14.6164 27.294C14.8692 27.5532 15.1398 27.7922 15.4254 28.0093C15.4835 28.0534 15.54 28.095 15.5939 28.1338C15.6504 28.1743 15.7077 28.2143 15.7654 28.2531L15.7666 28.2539L15.833 28.298L15.9003 28.3417L15.9098 28.3481L15.97 28.3865L16.0319 28.4246L16.0593 28.4415L16.1195 28.4779L16.1796 28.5131L16.2004 28.5256C16.2265 28.5406 16.2568 28.558 16.2896 28.5758L16.3071 28.5859L16.3249 28.5956L16.3448 28.6065L16.4096 28.6425L16.4768 28.6777L16.486 28.6829L16.5545 28.7181L16.6238 28.7529L16.6325 28.7569C16.8421 28.8608 17.0571 28.9555 17.2763 29.0391C17.3241 29.0577 17.3664 29.0739 17.4046 29.0873C17.4422 29.1014 17.486 29.1166 17.5326 29.1327C17.533 29.1329 17.5335 29.1331 17.5338 29.1333V29.1333C17.5343 29.1336 17.5348 29.1338 17.5353 29.134L17.5428 29.1362L17.6163 29.1609L17.6898 29.1851L17.7005 29.1883L17.7674 29.209L17.8342 29.2292L17.8682 29.2397L17.9338 29.2583L18.0002 29.2769L18.0251 29.2834L18.0903 29.3008L18.1563 29.3177L18.1957 29.3274L18.2543 29.3416L18.3116 29.3553L18.3693 29.3679L18.4747 29.3905L18.5436 29.4043L18.5947 29.414L18.6445 29.4237L18.6984 29.433L18.7574 29.4435L18.8155 29.4532L18.8599 29.4597L18.9222 29.469L18.9832 29.4779L19.0193 29.4827C19.1629 29.5017 19.3086 29.5167 19.4551 29.5272L19.5415 29.5337L19.6265 29.5385C19.6268 29.5385 19.6271 29.5384 19.6274 29.5383V29.5383C19.6277 29.5382 19.628 29.5381 19.6283 29.5381H19.6291L19.6523 29.5397L19.7059 29.5421L19.759 29.5442L19.8325 29.5466L19.913 29.5482H19.9283L20.0031 29.549C20.0413 29.549 20.0666 29.549 20.0923 29.5486L20.099 29.5482L20.1766 29.5474L20.2725 29.545L20.3517 29.5417L20.4406 29.5377L20.5269 29.532L20.6191 29.5256L20.6992 29.5191L20.788 29.5106L20.854 29.5033L20.8706 29.5017L20.9669 29.4904L21.1329 29.4681C21.1684 29.4631 21.1927 29.4588 21.2144 29.4553C21.2189 29.4546 21.2233 29.4539 21.2276 29.4532L21.24 29.4508V29.4508C21.2409 29.4505 21.2417 29.4503 21.2426 29.4502L21.3073 29.4398C21.3592 29.4314 21.4036 29.4233 21.448 29.4144L21.4791 29.4087L21.5568 29.3933L21.6365 29.3764L21.7162 29.3582L21.7722 29.3452L21.827 29.3323L21.8847 29.3177L21.9113 29.3109L21.9943 29.289L22.069 29.2688L22.1699 29.2401L22.2388 29.2191C22.2657 29.2106 22.2927 29.2029 22.3363 29.1888L22.4135 29.1633L22.5086 29.1309L22.5825 29.1051L22.6754 29.0711L22.7531 29.0412L22.8465 29.0048L22.9208 28.9745L23.0104 28.9369L23.0893 28.9025L23.1785 28.862L23.2545 28.8269L23.3263 28.7921L23.3388 28.7864L23.3479 28.7816L23.3603 28.7759L23.4176 28.748L23.511 28.7003L23.5264 28.6922L23.5812 28.6639L23.6621 28.6207L23.7426 28.5758L23.8248 28.5289L23.9074 28.4799L23.9091 28.4787L23.9888 28.431L24.0694 28.3807C24.0696 28.3806 24.0699 28.3804 24.0702 28.3803V28.3803C24.0707 28.3802 24.0712 28.3799 24.0716 28.3795L24.0724 28.3787C24.0728 28.3783 24.0733 28.3779 24.0738 28.3776L24.149 28.3299L24.2283 28.2778L24.3068 28.2248L24.3806 28.1739L24.3835 28.1714C24.4836 28.1011 24.5836 28.0275 24.6824 27.9503L24.7538 27.8941L24.824 27.8367L24.8241 27.8365C24.8248 27.8358 24.8256 27.8352 24.8265 27.8346V27.8346C24.8273 27.8341 24.8281 27.8335 24.8288 27.8328L24.8298 27.8318L24.8978 27.7756L24.967 27.7167C24.9671 27.7166 24.9672 27.7165 24.9674 27.7165V27.7165C24.9678 27.7163 24.9681 27.7159 24.9682 27.7155L24.9682 27.7154C24.9684 27.7151 24.9685 27.7148 24.9688 27.7146C25.0347 27.6577 25.0989 27.6008 25.1618 27.5423L25.1988 27.5075L25.2353 27.4723C25.2356 27.4721 25.2359 27.4719 25.2362 27.4717V27.4717C25.2365 27.4716 25.2367 27.4715 25.2369 27.4713L25.2386 27.4699L25.3042 27.406L25.3672 27.3435C25.3676 27.3431 25.3679 27.3428 25.3683 27.3426V27.3426C25.3688 27.3423 25.3692 27.342 25.3695 27.3416C25.3996 27.3111 25.4289 27.2813 25.4578 27.2512L25.4752 27.2334L25.4923 27.2152L25.4935 27.2136L25.4948 27.2124L25.557 27.1464L25.616 27.0818L25.6176 27.0797L25.6766 27.0138L25.7335 26.9483C25.7337 26.948 25.7339 26.9478 25.7341 26.9475V26.9475C25.7342 26.9472 25.7344 26.947 25.7346 26.9468L25.7363 26.9447L25.7915 26.88L25.8459 26.8137L25.8538 26.804L25.9061 26.7389L25.9588 26.6718L25.9617 26.6681V26.6681C25.9877 26.6338 26.0354 26.6241 26.073 26.6451V26.6451L31.1675 29.51C31.2233 29.5414 31.2235 29.6217 31.1678 29.6533V29.6533L14.0274 39.2927C13.0021 39.8693 11.7859 39.8345 10.8245 39.3053L10.7706 39.2745L0.965641 33.7606C0.710358 33.6191 0.54183 33.4743 0.435566 33.2883C0.329718 33.1031 0.288208 32.882 0.286963 32.5888L0.286133 21.4247C0.328887 20.3835 0.901716 19.3852 1.89628 18.8256V18.8256Z"/>
<path d="M19.9999 27.9808C16.7576 27.9808 14.1281 25.4058 14.1281 22.2308C14.1281 19.0559 16.7576 16.4808 19.9999 16.4808C23.2432 16.4808 25.8728 19.0559 25.8728 22.2308C25.8728 25.4058 23.2432 27.9808 19.9999 27.9808Z"/>
</mask>
<path d="M19.3161 0.49622C19.5635 0.355106 19.7731 0.285156 19.9865 0.285156H20.001C20.2189 0.288391 20.436 0.364002 20.6971 0.509563L30.6228 6.09143C31.5277 6.6478 32.1288 7.63033 32.1288 8.74873V8.74873C32.1288 10.9453 29.7628 12.3284 27.8487 11.2507L19.9188 6.78568C19.8183 6.73149 19.7117 6.70279 19.6112 6.70279C19.5344 6.70279 19.4614 6.71977 19.3979 6.75333C19.3352 6.78648 19.2816 6.83784 19.2418 6.90698C19.1957 6.98744 19.1679 7.09459 19.1679 7.22883L19.1675 15.0139V15.0139C19.1677 15.055 19.1372 15.0898 19.0965 15.0949L19.0944 15.0952L19.0886 15.096L19.0085 15.1061L18.928 15.1166L18.9176 15.1182L18.8391 15.13L18.7619 15.1417L18.7412 15.1453L18.6611 15.1591L18.5826 15.1728L18.5781 15.174L18.4963 15.1894L18.4162 15.206L18.4029 15.2084L18.3248 15.2254L18.246 15.244L18.2397 15.2452C17.8828 15.3285 17.5353 15.4377 17.1995 15.5699C17.131 15.5966 17.0659 15.6237 17.0044 15.6499C16.9404 15.6769 16.8768 15.7055 16.814 15.7344C16.8134 15.7347 16.8127 15.7349 16.8121 15.7351V15.7351C16.8114 15.7352 16.8107 15.7354 16.81 15.7357L16.7388 15.7692L16.6665 15.8044L16.6558 15.8089L16.5918 15.8408L16.5271 15.8739L16.4984 15.8885L16.4358 15.9213L16.3743 15.9544L16.3531 15.9657C16.3262 15.9803 16.2959 15.9973 16.2639 16.0155L16.2456 16.0256L16.2282 16.0357L16.2083 16.047L16.1444 16.0838L16.0796 16.1226L16.0705 16.1279L16.0049 16.1683L15.9389 16.2091L15.9314 16.2148C15.7338 16.3393 15.5429 16.4736 15.3582 16.6163C15.3183 16.6474 15.2826 16.6753 15.2515 16.7004C15.2199 16.7255 15.1838 16.755 15.1465 16.7865L15.1452 16.7873L15.139 16.7926L15.0796 16.8423L15.0224 16.8925L15.0136 16.8998L14.9618 16.9458L14.9103 16.9919L14.8845 17.0158L14.8343 17.0619L14.7849 17.1084L14.7667 17.1258L14.7185 17.1723L14.6708 17.2196L14.6421 17.2479L14.6006 17.2899L14.5595 17.3324L14.5193 17.3744L14.4832 17.4129L14.447 17.4517L14.4001 17.503L14.3657 17.541L14.3325 17.5782L14.2972 17.6191L14.2582 17.6635L14.2204 17.708L14.193 17.742L14.1532 17.7897L14.115 17.8366L14.0926 17.8653C14.0037 17.9769 13.9174 18.0921 13.8348 18.2106L13.7862 18.2806L13.7389 18.3497L13.7252 18.3707L13.6679 18.4581L13.6293 18.5191L13.5874 18.5866L13.5807 18.5974C13.5804 18.5978 13.5803 18.5982 13.5801 18.5986V18.5986C13.58 18.599 13.5798 18.5994 13.5796 18.5997L13.5421 18.6618C13.5263 18.6875 13.5155 18.7063 13.5055 18.7236C13.5029 18.7282 13.5003 18.7326 13.4977 18.7371L13.4944 18.7431L13.4566 18.809L13.4338 18.8499L13.4106 18.8911L13.374 18.9594L13.3333 19.0367L13.2947 19.1123L13.2545 19.1927L13.2204 19.2643L13.1835 19.3436L13.1569 19.4026L13.1117 19.5045L13.081 19.5781L13.049 19.6553C13.0387 19.6809 13.0311 19.7004 13.0245 19.7173C13.021 19.7263 13.0177 19.7346 13.0146 19.7426L13.0104 19.754L13.01 19.7556L12.9863 19.8166C12.9685 19.8648 12.9535 19.906 12.9386 19.948L12.9282 19.9776L12.9033 20.0507L12.8788 20.1264L12.8547 20.2024L12.8386 20.2561L12.8224 20.3087L12.8066 20.3645L12.7991 20.3904L12.7771 20.4713L12.7584 20.5448L12.7331 20.6439L12.7173 20.713C12.7111 20.7393 12.7049 20.7664 12.6958 20.8101L12.6792 20.8877L12.6605 20.9844L12.6472 21.06L12.6306 21.1554L12.6181 21.2359L12.604 21.3321L12.5937 21.4101L12.5824 21.5051L12.5733 21.5884L12.5646 21.6847L12.558 21.7655L12.5521 21.8565L12.5513 21.867L12.5501 21.8808L12.5463 21.943L12.5426 22.0449L12.5418 22.0623L12.5397 22.123L12.538 22.2127L12.5372 22.3029L12.538 22.3959L12.5397 22.4897L12.5401 22.4925L12.5426 22.5831L12.5472 22.6765V22.6765C12.5472 22.6773 12.5472 22.6781 12.5473 22.6789L12.5476 22.6806L12.5526 22.7691L12.5592 22.8617L12.5671 22.9547L12.5758 23.042L12.5762 23.0457C12.5883 23.1658 12.6044 23.2867 12.6235 23.4088L12.6376 23.4969L12.6537 23.5839C12.6538 23.5844 12.6538 23.5849 12.6538 23.5854V23.5854C12.6538 23.5862 12.654 23.5871 12.6543 23.5879L12.6544 23.5882C12.6546 23.5888 12.6547 23.5894 12.6548 23.5901L12.6551 23.5923L12.6709 23.6776L12.6887 23.7654L12.6891 23.7674C12.707 23.8511 12.7256 23.9344 12.7464 24.0169L12.7589 24.0654L12.7716 24.1138C12.7717 24.1141 12.7717 24.1145 12.7717 24.1149V24.1149C12.7717 24.1153 12.7718 24.1157 12.7719 24.1162L12.7726 24.1184L12.7962 24.2053L12.8203 24.2906L12.8207 24.2918C12.8304 24.3254 12.841 24.359 12.8511 24.3921C12.8531 24.3989 12.8552 24.4056 12.8572 24.4123L12.8643 24.4358L12.8715 24.4589C12.8717 24.4594 12.8719 24.4599 12.8721 24.4603V24.4603C12.8724 24.4609 12.8727 24.4616 12.8728 24.4622L12.873 24.4629L12.9008 24.5482L12.9278 24.6277C12.9283 24.6294 12.929 24.6311 12.9299 24.6327V24.6327L12.9589 24.7156L12.9886 24.7959C12.9888 24.7963 12.989 24.7966 12.9892 24.7968V24.7968C12.9895 24.7971 12.9897 24.7975 12.9898 24.7979L12.9905 24.8001L13.0208 24.8797L13.0519 24.9586L13.0569 24.9699L13.0884 25.0467L13.1221 25.1248L13.1237 25.1288V25.1288C13.1411 25.1675 13.1261 25.2131 13.0891 25.2339L11.3125 26.233C9.77119 27.0998 7.86698 25.986 7.86698 24.2177V8.74873C7.86698 7.59516 8.5054 6.58715 9.45679 6.04089L9.51158 6.01056L19.3161 0.49622Z" fill="#FC226A"/>
<path d="M20.8349 13.0106C20.8349 11.2671 22.7124 10.1689 24.2321 11.0235L38.1024 18.824C39.1277 19.4006 39.7046 20.4438 39.7146 21.5193V32.6086C39.7171 32.8945 39.6723 33.1092 39.5602 33.292C39.4485 33.4743 39.2725 33.6195 39.0123 33.7671L29.087 39.3493C28.1397 39.8345 26.9663 39.8507 25.9713 39.2907L21.7315 36.9067V36.9067C21.6758 36.8753 21.6757 36.7948 21.7315 36.7636V36.7636L33.8219 29.9728C33.9203 29.9149 33.9984 29.8393 34.049 29.7544C34.0872 29.6893 34.1096 29.6194 34.1108 29.5494C34.1125 29.4799 34.0942 29.4087 34.0527 29.3412C34.0037 29.2611 33.9228 29.1847 33.8033 29.1176L26.882 25.225L26.881 25.2245C26.845 25.2044 26.83 25.1603 26.8463 25.1223V25.1223L26.8484 25.1167L26.8799 25.0443L26.9102 24.9711L26.943 24.8894L26.9708 24.8183L26.9779 24.7993L27.0061 24.7245L27.0331 24.6513L27.0343 24.6472L27.0609 24.5704L27.0866 24.4948L27.0912 24.4823L27.1153 24.4075L27.1385 24.3323L27.1402 24.3266C27.244 23.9837 27.3212 23.6356 27.3718 23.2862C27.3818 23.2151 27.3905 23.1472 27.398 23.0821C27.4058 23.0137 27.4125 22.9458 27.4187 22.8779V22.8758L27.4249 22.7982L27.4299 22.7194L27.4303 22.708L27.4345 22.6381L27.4378 22.5669L27.439 22.5358L27.4411 22.4663L27.4428 22.3745C27.4432 22.3445 27.4436 22.3106 27.4432 22.2742V22.2119L27.442 22.1395L27.4403 22.0656L27.4399 22.055L27.4374 21.9798L27.4337 21.9034L27.4328 21.8941C27.42 21.6657 27.3963 21.4368 27.3618 21.21C27.3548 21.1606 27.3473 21.1166 27.3407 21.0778C27.3341 21.0392 27.3258 20.9942 27.3167 20.9471C27.3166 20.9466 27.3166 20.9461 27.3166 20.9456V20.9456C27.3166 20.945 27.3165 20.9445 27.3164 20.9439L27.3149 20.9366L27.3 20.8622L27.2842 20.7887L27.2821 20.7777L27.2672 20.7106L27.2518 20.6439L27.2435 20.6103L27.2282 20.5457L27.2112 20.4802L27.2049 20.4559L27.1697 20.3281L27.1584 20.2901L27.1418 20.2335L27.1078 20.1235L27.0916 20.0738L27.075 20.0233L27.053 19.9586L27.0194 19.8635L27.0007 19.8134L26.9808 19.7584L26.96 19.7042L26.9443 19.6638L26.9214 19.6068L26.8986 19.551L26.8845 19.5178C26.8297 19.3872 26.7703 19.257 26.7064 19.1276L26.6311 18.9776C26.6309 18.9774 26.6307 18.9772 26.6304 18.977V18.977C26.6302 18.9769 26.63 18.9767 26.6298 18.9764L26.6296 18.976L26.6188 18.9554L26.5943 18.9089L26.5694 18.8632L26.5346 18.7997L26.496 18.731L26.4889 18.7193L26.4885 18.7185L26.4515 18.655C26.4324 18.6222 26.4196 18.6012 26.4067 18.5802L26.403 18.5741L26.3635 18.509L26.3391 18.4698L26.3129 18.4294L26.271 18.3643L26.2228 18.2911L26.1747 18.2211L26.1228 18.1471L26.0771 18.0824L26.0248 18.0117L25.9854 17.9599L25.9754 17.947L25.9173 17.871L25.8675 17.8079L25.8148 17.7424C25.7874 17.7096 25.7708 17.6894 25.7542 17.67L25.7466 17.6607C25.7464 17.6604 25.7462 17.6602 25.7459 17.6601V17.6601C25.7456 17.66 25.7454 17.6598 25.7452 17.6596L25.7027 17.609C25.6691 17.5697 25.6396 17.5366 25.6097 17.503L25.5886 17.4796L25.5363 17.4217L25.4815 17.3631L25.4254 17.3049L25.347 17.2244L25.3051 17.1832L25.2855 17.1642L25.2254 17.1052L25.1693 17.0526L25.0938 16.9814L25.0402 16.9337C25.0199 16.9151 24.9987 16.8965 24.9647 16.867L24.9041 16.814L24.8273 16.7506L24.7667 16.7008L24.6903 16.6394L24.6251 16.5888L24.5463 16.5286L24.4823 16.4809L24.4035 16.4238L24.3337 16.3745L24.2528 16.3191L24.1839 16.273L24.1171 16.2298L24.1058 16.2225L24.0971 16.2164L24.0859 16.2091L24.032 16.1752L23.9435 16.1202L23.8755 16.0789L23.7962 16.0324L23.7169 15.9868L23.6339 15.9411L23.5503 15.896C23.5496 15.8956 23.5488 15.8953 23.548 15.8952V15.8952C23.5471 15.895 23.5463 15.8948 23.5456 15.8944L23.4649 15.8513L23.3799 15.8084V15.8084C23.379 15.8079 23.3781 15.8075 23.3772 15.8072L23.3768 15.8071C23.3761 15.8069 23.3754 15.8067 23.3747 15.8063L23.2943 15.7668L23.2088 15.726L23.1225 15.6863L23.0403 15.6495L23.0366 15.6479C22.9241 15.599 22.8087 15.5517 22.6904 15.5068L22.6053 15.4749L22.5189 15.4441V15.4441C22.5178 15.4439 22.5168 15.4435 22.5157 15.4431L22.5144 15.4425L22.5119 15.4413L22.4276 15.4122L22.3409 15.3835V15.3835C22.3403 15.3832 22.3397 15.383 22.3391 15.3829L22.3384 15.3827C22.2554 15.356 22.1715 15.3305 22.0881 15.3063L22.0391 15.2925L21.9895 15.2793C21.9891 15.2792 21.9887 15.279 21.9884 15.2787V15.2787C21.9882 15.2785 21.9879 15.2783 21.9875 15.2782L21.9856 15.2776L21.8963 15.2541L21.8079 15.2319L21.8066 15.2315C21.7647 15.2214 21.7228 15.2112 21.6809 15.2019L21.6568 15.1967L21.6319 15.191V15.191C21.6311 15.1908 21.6302 15.1905 21.6294 15.1904L21.6282 15.1902L21.5389 15.1712L21.4517 15.1534L21.4493 15.153L21.3613 15.1364L21.2737 15.1211L21.2699 15.1207L21.1844 15.1061L21.0981 15.0936L21.0856 15.0916L21.0018 15.0802L20.9159 15.0693L20.9109 15.0685V15.0685C20.8677 15.0639 20.8349 15.0275 20.8349 14.984V13.0106Z" fill="#FC226A"/>
<path d="M1.89628 18.8256C3.84904 17.7273 6.26156 19.1393 6.26034 21.3797L6.25559 30.1074C6.25767 30.2194 6.28589 30.3237 6.33612 30.4082C6.37514 30.4733 6.42619 30.5267 6.48721 30.5627C6.54865 30.5991 6.62129 30.6189 6.70223 30.6181C6.79729 30.6165 6.90604 30.5861 7.02517 30.5194L13.9471 26.6267C13.9837 26.6061 14.03 26.6153 14.056 26.6483V26.6483L14.0598 26.6523L14.1083 26.715L14.1581 26.7777L14.1644 26.7858L14.2142 26.846L14.2636 26.9051L14.2769 26.9212L14.3292 26.9819L14.3806 27.0409L14.3839 27.0446L14.4387 27.1052L14.4931 27.165L14.5022 27.1748L14.5566 27.2322L14.6122 27.2896L14.6164 27.294C14.8692 27.5532 15.1398 27.7922 15.4254 28.0093C15.4835 28.0534 15.54 28.095 15.5939 28.1338C15.6504 28.1743 15.7077 28.2143 15.7654 28.2531L15.7666 28.2539L15.833 28.298L15.9003 28.3417L15.9098 28.3481L15.97 28.3865L16.0319 28.4246L16.0593 28.4415L16.1195 28.4779L16.1796 28.5131L16.2004 28.5256C16.2265 28.5406 16.2568 28.558 16.2896 28.5758L16.3071 28.5859L16.3249 28.5956L16.3448 28.6065L16.4096 28.6425L16.4768 28.6777L16.486 28.6829L16.5545 28.7181L16.6238 28.7529L16.6325 28.7569C16.8421 28.8608 17.0571 28.9555 17.2763 29.0391C17.3241 29.0577 17.3664 29.0739 17.4046 29.0873C17.4422 29.1014 17.486 29.1166 17.5326 29.1327C17.533 29.1329 17.5335 29.1331 17.5338 29.1333V29.1333C17.5343 29.1336 17.5348 29.1338 17.5353 29.134L17.5428 29.1362L17.6163 29.1609L17.6898 29.1851L17.7005 29.1883L17.7674 29.209L17.8342 29.2292L17.8682 29.2397L17.9338 29.2583L18.0002 29.2769L18.0251 29.2834L18.0903 29.3008L18.1563 29.3177L18.1957 29.3274L18.2543 29.3416L18.3116 29.3553L18.3693 29.3679L18.4747 29.3905L18.5436 29.4043L18.5947 29.414L18.6445 29.4237L18.6984 29.433L18.7574 29.4435L18.8155 29.4532L18.8599 29.4597L18.9222 29.469L18.9832 29.4779L19.0193 29.4827C19.1629 29.5017 19.3086 29.5167 19.4551 29.5272L19.5415 29.5337L19.6265 29.5385C19.6268 29.5385 19.6271 29.5384 19.6274 29.5383V29.5383C19.6277 29.5382 19.628 29.5381 19.6283 29.5381H19.6291L19.6523 29.5397L19.7059 29.5421L19.759 29.5442L19.8325 29.5466L19.913 29.5482H19.9283L20.0031 29.549C20.0413 29.549 20.0666 29.549 20.0923 29.5486L20.099 29.5482L20.1766 29.5474L20.2725 29.545L20.3517 29.5417L20.4406 29.5377L20.5269 29.532L20.6191 29.5256L20.6992 29.5191L20.788 29.5106L20.854 29.5033L20.8706 29.5017L20.9669 29.4904L21.1329 29.4681C21.1684 29.4631 21.1927 29.4588 21.2144 29.4553C21.2189 29.4546 21.2233 29.4539 21.2276 29.4532L21.24 29.4508V29.4508C21.2409 29.4505 21.2417 29.4503 21.2426 29.4502L21.3073 29.4398C21.3592 29.4314 21.4036 29.4233 21.448 29.4144L21.4791 29.4087L21.5568 29.3933L21.6365 29.3764L21.7162 29.3582L21.7722 29.3452L21.827 29.3323L21.8847 29.3177L21.9113 29.3109L21.9943 29.289L22.069 29.2688L22.1699 29.2401L22.2388 29.2191C22.2657 29.2106 22.2927 29.2029 22.3363 29.1888L22.4135 29.1633L22.5086 29.1309L22.5825 29.1051L22.6754 29.0711L22.7531 29.0412L22.8465 29.0048L22.9208 28.9745L23.0104 28.9369L23.0893 28.9025L23.1785 28.862L23.2545 28.8269L23.3263 28.7921L23.3388 28.7864L23.3479 28.7816L23.3603 28.7759L23.4176 28.748L23.511 28.7003L23.5264 28.6922L23.5812 28.6639L23.6621 28.6207L23.7426 28.5758L23.8248 28.5289L23.9074 28.4799L23.9091 28.4787L23.9888 28.431L24.0694 28.3807C24.0696 28.3806 24.0699 28.3804 24.0702 28.3803V28.3803C24.0707 28.3802 24.0712 28.3799 24.0716 28.3795L24.0724 28.3787C24.0728 28.3783 24.0733 28.3779 24.0738 28.3776L24.149 28.3299L24.2283 28.2778L24.3068 28.2248L24.3806 28.1739L24.3835 28.1714C24.4836 28.1011 24.5836 28.0275 24.6824 27.9503L24.7538 27.8941L24.824 27.8367L24.8241 27.8365C24.8248 27.8358 24.8256 27.8352 24.8265 27.8346V27.8346C24.8273 27.8341 24.8281 27.8335 24.8288 27.8328L24.8298 27.8318L24.8978 27.7756L24.967 27.7167C24.9671 27.7166 24.9672 27.7165 24.9674 27.7165V27.7165C24.9678 27.7163 24.9681 27.7159 24.9682 27.7155L24.9682 27.7154C24.9684 27.7151 24.9685 27.7148 24.9688 27.7146C25.0347 27.6577 25.0989 27.6008 25.1618 27.5423L25.1988 27.5075L25.2353 27.4723C25.2356 27.4721 25.2359 27.4719 25.2362 27.4717V27.4717C25.2365 27.4716 25.2367 27.4715 25.2369 27.4713L25.2386 27.4699L25.3042 27.406L25.3672 27.3435C25.3676 27.3431 25.3679 27.3428 25.3683 27.3426V27.3426C25.3688 27.3423 25.3692 27.342 25.3695 27.3416C25.3996 27.3111 25.4289 27.2813 25.4578 27.2512L25.4752 27.2334L25.4923 27.2152L25.4935 27.2136L25.4948 27.2124L25.557 27.1464L25.616 27.0818L25.6176 27.0797L25.6766 27.0138L25.7335 26.9483C25.7337 26.948 25.7339 26.9478 25.7341 26.9475V26.9475C25.7342 26.9472 25.7344 26.947 25.7346 26.9468L25.7363 26.9447L25.7915 26.88L25.8459 26.8137L25.8538 26.804L25.9061 26.7389L25.9588 26.6718L25.9617 26.6681V26.6681C25.9877 26.6338 26.0354 26.6241 26.073 26.6451V26.6451L31.1675 29.51C31.2233 29.5414 31.2235 29.6217 31.1678 29.6533V29.6533L14.0274 39.2927C13.0021 39.8693 11.7859 39.8345 10.8245 39.3053L10.7706 39.2745L0.965641 33.7606C0.710358 33.6191 0.54183 33.4743 0.435566 33.2883C0.329718 33.1031 0.288208 32.882 0.286963 32.5888L0.286133 21.4247C0.328887 20.3835 0.901716 19.3852 1.89628 18.8256V18.8256Z" fill="#FC226A"/>
<path d="M19.9999 27.9808C16.7576 27.9808 14.1281 25.4058 14.1281 22.2308C14.1281 19.0559 16.7576 16.4808 19.9999 16.4808C23.2432 16.4808 25.8728 19.0559 25.8728 22.2308C25.8728 25.4058 23.2432 27.9808 19.9999 27.9808Z" fill="#FC226A"/>
<path d="M19.3161 0.49622C19.5635 0.355106 19.7731 0.285156 19.9865 0.285156H20.001C20.2189 0.288391 20.436 0.364002 20.6971 0.509563L30.6228 6.09143C31.5277 6.6478 32.1288 7.63033 32.1288 8.74873V8.74873C32.1288 10.9453 29.7628 12.3284 27.8487 11.2507L19.9188 6.78568C19.8183 6.73149 19.7117 6.70279 19.6112 6.70279C19.5344 6.70279 19.4614 6.71977 19.3979 6.75333C19.3352 6.78648 19.2816 6.83784 19.2418 6.90698C19.1957 6.98744 19.1679 7.09459 19.1679 7.22883L19.1675 15.0139V15.0139C19.1677 15.055 19.1372 15.0898 19.0965 15.0949L19.0944 15.0952L19.0886 15.096L19.0085 15.1061L18.928 15.1166L18.9176 15.1182L18.8391 15.13L18.7619 15.1417L18.7412 15.1453L18.6611 15.1591L18.5826 15.1728L18.5781 15.174L18.4963 15.1894L18.4162 15.206L18.4029 15.2084L18.3248 15.2254L18.246 15.244L18.2397 15.2452C17.8828 15.3285 17.5353 15.4377 17.1995 15.5699C17.131 15.5966 17.0659 15.6237 17.0044 15.6499C16.9404 15.6769 16.8768 15.7055 16.814 15.7344C16.8134 15.7347 16.8127 15.7349 16.8121 15.7351V15.7351C16.8114 15.7352 16.8107 15.7354 16.81 15.7357L16.7388 15.7692L16.6665 15.8044L16.6558 15.8089L16.5918 15.8408L16.5271 15.8739L16.4984 15.8885L16.4358 15.9213L16.3743 15.9544L16.3531 15.9657C16.3262 15.9803 16.2959 15.9973 16.2639 16.0155L16.2456 16.0256L16.2282 16.0357L16.2083 16.047L16.1444 16.0838L16.0796 16.1226L16.0705 16.1279L16.0049 16.1683L15.9389 16.2091L15.9314 16.2148C15.7338 16.3393 15.5429 16.4736 15.3582 16.6163C15.3183 16.6474 15.2826 16.6753 15.2515 16.7004C15.2199 16.7255 15.1838 16.755 15.1465 16.7865L15.1452 16.7873L15.139 16.7926L15.0796 16.8423L15.0224 16.8925L15.0136 16.8998L14.9618 16.9458L14.9103 16.9919L14.8845 17.0158L14.8343 17.0619L14.7849 17.1084L14.7667 17.1258L14.7185 17.1723L14.6708 17.2196L14.6421 17.2479L14.6006 17.2899L14.5595 17.3324L14.5193 17.3744L14.4832 17.4129L14.447 17.4517L14.4001 17.503L14.3657 17.541L14.3325 17.5782L14.2972 17.6191L14.2582 17.6635L14.2204 17.708L14.193 17.742L14.1532 17.7897L14.115 17.8366L14.0926 17.8653C14.0037 17.9769 13.9174 18.0921 13.8348 18.2106L13.7862 18.2806L13.7389 18.3497L13.7252 18.3707L13.6679 18.4581L13.6293 18.5191L13.5874 18.5866L13.5807 18.5974C13.5804 18.5978 13.5803 18.5982 13.5801 18.5986V18.5986C13.58 18.599 13.5798 18.5994 13.5796 18.5997L13.5421 18.6618C13.5263 18.6875 13.5155 18.7063 13.5055 18.7236C13.5029 18.7282 13.5003 18.7326 13.4977 18.7371L13.4944 18.7431L13.4566 18.809L13.4338 18.8499L13.4106 18.8911L13.374 18.9594L13.3333 19.0367L13.2947 19.1123L13.2545 19.1927L13.2204 19.2643L13.1835 19.3436L13.1569 19.4026L13.1117 19.5045L13.081 19.5781L13.049 19.6553C13.0387 19.6809 13.0311 19.7004 13.0245 19.7173C13.021 19.7263 13.0177 19.7346 13.0146 19.7426L13.0104 19.754L13.01 19.7556L12.9863 19.8166C12.9685 19.8648 12.9535 19.906 12.9386 19.948L12.9282 19.9776L12.9033 20.0507L12.8788 20.1264L12.8547 20.2024L12.8386 20.2561L12.8224 20.3087L12.8066 20.3645L12.7991 20.3904L12.7771 20.4713L12.7584 20.5448L12.7331 20.6439L12.7173 20.713C12.7111 20.7393 12.7049 20.7664 12.6958 20.8101L12.6792 20.8877L12.6605 20.9844L12.6472 21.06L12.6306 21.1554L12.6181 21.2359L12.604 21.3321L12.5937 21.4101L12.5824 21.5051L12.5733 21.5884L12.5646 21.6847L12.558 21.7655L12.5521 21.8565L12.5513 21.867L12.5501 21.8808L12.5463 21.943L12.5426 22.0449L12.5418 22.0623L12.5397 22.123L12.538 22.2127L12.5372 22.3029L12.538 22.3959L12.5397 22.4897L12.5401 22.4925L12.5426 22.5831L12.5472 22.6765V22.6765C12.5472 22.6773 12.5472 22.6781 12.5473 22.6789L12.5476 22.6806L12.5526 22.7691L12.5592 22.8617L12.5671 22.9547L12.5758 23.042L12.5762 23.0457C12.5883 23.1658 12.6044 23.2867 12.6235 23.4088L12.6376 23.4969L12.6537 23.5839C12.6538 23.5844 12.6538 23.5849 12.6538 23.5854V23.5854C12.6538 23.5862 12.654 23.5871 12.6543 23.5879L12.6544 23.5882C12.6546 23.5888 12.6547 23.5894 12.6548 23.5901L12.6551 23.5923L12.6709 23.6776L12.6887 23.7654L12.6891 23.7674C12.707 23.8511 12.7256 23.9344 12.7464 24.0169L12.7589 24.0654L12.7716 24.1138C12.7717 24.1141 12.7717 24.1145 12.7717 24.1149V24.1149C12.7717 24.1153 12.7718 24.1157 12.7719 24.1162L12.7726 24.1184L12.7962 24.2053L12.8203 24.2906L12.8207 24.2918C12.8304 24.3254 12.841 24.359 12.8511 24.3921C12.8531 24.3989 12.8552 24.4056 12.8572 24.4123L12.8643 24.4358L12.8715 24.4589C12.8717 24.4594 12.8719 24.4599 12.8721 24.4603V24.4603C12.8724 24.4609 12.8727 24.4616 12.8728 24.4622L12.873 24.4629L12.9008 24.5482L12.9278 24.6277C12.9283 24.6294 12.929 24.6311 12.9299 24.6327V24.6327L12.9589 24.7156L12.9886 24.7959C12.9888 24.7963 12.989 24.7966 12.9892 24.7968V24.7968C12.9895 24.7971 12.9897 24.7975 12.9898 24.7979L12.9905 24.8001L13.0208 24.8797L13.0519 24.9586L13.0569 24.9699L13.0884 25.0467L13.1221 25.1248L13.1237 25.1288V25.1288C13.1411 25.1675 13.1261 25.2131 13.0891 25.2339L11.3125 26.233C9.77119 27.0998 7.86698 25.986 7.86698 24.2177V8.74873C7.86698 7.59516 8.5054 6.58715 9.45679 6.04089L9.51158 6.01056L19.3161 0.49622Z" stroke="white" stroke-opacity="0.1" stroke-width="2" mask="url(#path-1-inside-1_22_1854)"/>
<path d="M20.8349 13.0106C20.8349 11.2671 22.7124 10.1689 24.2321 11.0235L38.1024 18.824C39.1277 19.4006 39.7046 20.4438 39.7146 21.5193V32.6086C39.7171 32.8945 39.6723 33.1092 39.5602 33.292C39.4485 33.4743 39.2725 33.6195 39.0123 33.7671L29.087 39.3493C28.1397 39.8345 26.9663 39.8507 25.9713 39.2907L21.7315 36.9067V36.9067C21.6758 36.8753 21.6757 36.7948 21.7315 36.7636V36.7636L33.8219 29.9728C33.9203 29.9149 33.9984 29.8393 34.049 29.7544C34.0872 29.6893 34.1096 29.6194 34.1108 29.5494C34.1125 29.4799 34.0942 29.4087 34.0527 29.3412C34.0037 29.2611 33.9228 29.1847 33.8033 29.1176L26.882 25.225L26.881 25.2245C26.845 25.2044 26.83 25.1603 26.8463 25.1223V25.1223L26.8484 25.1167L26.8799 25.0443L26.9102 24.9711L26.943 24.8894L26.9708 24.8183L26.9779 24.7993L27.0061 24.7245L27.0331 24.6513L27.0343 24.6472L27.0609 24.5704L27.0866 24.4948L27.0912 24.4823L27.1153 24.4075L27.1385 24.3323L27.1402 24.3266C27.244 23.9837 27.3212 23.6356 27.3718 23.2862C27.3818 23.2151 27.3905 23.1472 27.398 23.0821C27.4058 23.0137 27.4125 22.9458 27.4187 22.8779V22.8758L27.4249 22.7982L27.4299 22.7194L27.4303 22.708L27.4345 22.6381L27.4378 22.5669L27.439 22.5358L27.4411 22.4663L27.4428 22.3745C27.4432 22.3445 27.4436 22.3106 27.4432 22.2742V22.2119L27.442 22.1395L27.4403 22.0656L27.4399 22.055L27.4374 21.9798L27.4337 21.9034L27.4328 21.8941C27.42 21.6657 27.3963 21.4368 27.3618 21.21C27.3548 21.1606 27.3473 21.1166 27.3407 21.0778C27.3341 21.0392 27.3258 20.9942 27.3167 20.9471C27.3166 20.9466 27.3166 20.9461 27.3166 20.9456V20.9456C27.3166 20.945 27.3165 20.9445 27.3164 20.9439L27.3149 20.9366L27.3 20.8622L27.2842 20.7887L27.2821 20.7777L27.2672 20.7106L27.2518 20.6439L27.2435 20.6103L27.2282 20.5457L27.2112 20.4802L27.2049 20.4559L27.1697 20.3281L27.1584 20.2901L27.1418 20.2335L27.1078 20.1235L27.0916 20.0738L27.075 20.0233L27.053 19.9586L27.0194 19.8635L27.0007 19.8134L26.9808 19.7584L26.96 19.7042L26.9443 19.6638L26.9214 19.6068L26.8986 19.551L26.8845 19.5178C26.8297 19.3872 26.7703 19.257 26.7064 19.1276L26.6311 18.9776C26.6309 18.9774 26.6307 18.9772 26.6304 18.977V18.977C26.6302 18.9769 26.63 18.9767 26.6298 18.9764L26.6296 18.976L26.6188 18.9554L26.5943 18.9089L26.5694 18.8632L26.5346 18.7997L26.496 18.731L26.4889 18.7193L26.4885 18.7185L26.4515 18.655C26.4324 18.6222 26.4196 18.6012 26.4067 18.5802L26.403 18.5741L26.3635 18.509L26.3391 18.4698L26.3129 18.4294L26.271 18.3643L26.2228 18.2911L26.1747 18.2211L26.1228 18.1471L26.0771 18.0824L26.0248 18.0117L25.9854 17.9599L25.9754 17.947L25.9173 17.871L25.8675 17.8079L25.8148 17.7424C25.7874 17.7096 25.7708 17.6894 25.7542 17.67L25.7466 17.6607C25.7464 17.6604 25.7462 17.6602 25.7459 17.6601V17.6601C25.7456 17.66 25.7454 17.6598 25.7452 17.6596L25.7027 17.609C25.6691 17.5697 25.6396 17.5366 25.6097 17.503L25.5886 17.4796L25.5363 17.4217L25.4815 17.3631L25.4254 17.3049L25.347 17.2244L25.3051 17.1832L25.2855 17.1642L25.2254 17.1052L25.1693 17.0526L25.0938 16.9814L25.0402 16.9337C25.0199 16.9151 24.9987 16.8965 24.9647 16.867L24.9041 16.814L24.8273 16.7506L24.7667 16.7008L24.6903 16.6394L24.6251 16.5888L24.5463 16.5286L24.4823 16.4809L24.4035 16.4238L24.3337 16.3745L24.2528 16.3191L24.1839 16.273L24.1171 16.2298L24.1058 16.2225L24.0971 16.2164L24.0859 16.2091L24.032 16.1752L23.9435 16.1202L23.8755 16.0789L23.7962 16.0324L23.7169 15.9868L23.6339 15.9411L23.5503 15.896C23.5496 15.8956 23.5488 15.8953 23.548 15.8952V15.8952C23.5471 15.895 23.5463 15.8948 23.5456 15.8944L23.4649 15.8513L23.3799 15.8084V15.8084C23.379 15.8079 23.3781 15.8075 23.3772 15.8072L23.3768 15.8071C23.3761 15.8069 23.3754 15.8067 23.3747 15.8063L23.2943 15.7668L23.2088 15.726L23.1225 15.6863L23.0403 15.6495L23.0366 15.6479C22.9241 15.599 22.8087 15.5517 22.6904 15.5068L22.6053 15.4749L22.5189 15.4441V15.4441C22.5178 15.4439 22.5168 15.4435 22.5157 15.4431L22.5144 15.4425L22.5119 15.4413L22.4276 15.4122L22.3409 15.3835V15.3835C22.3403 15.3832 22.3397 15.383 22.3391 15.3829L22.3384 15.3827C22.2554 15.356 22.1715 15.3305 22.0881 15.3063L22.0391 15.2925L21.9895 15.2793C21.9891 15.2792 21.9887 15.279 21.9884 15.2787V15.2787C21.9882 15.2785 21.9879 15.2783 21.9875 15.2782L21.9856 15.2776L21.8963 15.2541L21.8079 15.2319L21.8066 15.2315C21.7647 15.2214 21.7228 15.2112 21.6809 15.2019L21.6568 15.1967L21.6319 15.191V15.191C21.6311 15.1908 21.6302 15.1905 21.6294 15.1904L21.6282 15.1902L21.5389 15.1712L21.4517 15.1534L21.4493 15.153L21.3613 15.1364L21.2737 15.1211L21.2699 15.1207L21.1844 15.1061L21.0981 15.0936L21.0856 15.0916L21.0018 15.0802L20.9159 15.0693L20.9109 15.0685V15.0685C20.8677 15.0639 20.8349 15.0275 20.8349 14.984V13.0106Z" stroke="white" stroke-opacity="0.1" stroke-width="2" mask="url(#path-1-inside-1_22_1854)"/>
<path d="M1.89628 18.8256C3.84904 17.7273 6.26156 19.1393 6.26034 21.3797L6.25559 30.1074C6.25767 30.2194 6.28589 30.3237 6.33612 30.4082C6.37514 30.4733 6.42619 30.5267 6.48721 30.5627C6.54865 30.5991 6.62129 30.6189 6.70223 30.6181C6.79729 30.6165 6.90604 30.5861 7.02517 30.5194L13.9471 26.6267C13.9837 26.6061 14.03 26.6153 14.056 26.6483V26.6483L14.0598 26.6523L14.1083 26.715L14.1581 26.7777L14.1644 26.7858L14.2142 26.846L14.2636 26.9051L14.2769 26.9212L14.3292 26.9819L14.3806 27.0409L14.3839 27.0446L14.4387 27.1052L14.4931 27.165L14.5022 27.1748L14.5566 27.2322L14.6122 27.2896L14.6164 27.294C14.8692 27.5532 15.1398 27.7922 15.4254 28.0093C15.4835 28.0534 15.54 28.095 15.5939 28.1338C15.6504 28.1743 15.7077 28.2143 15.7654 28.2531L15.7666 28.2539L15.833 28.298L15.9003 28.3417L15.9098 28.3481L15.97 28.3865L16.0319 28.4246L16.0593 28.4415L16.1195 28.4779L16.1796 28.5131L16.2004 28.5256C16.2265 28.5406 16.2568 28.558 16.2896 28.5758L16.3071 28.5859L16.3249 28.5956L16.3448 28.6065L16.4096 28.6425L16.4768 28.6777L16.486 28.6829L16.5545 28.7181L16.6238 28.7529L16.6325 28.7569C16.8421 28.8608 17.0571 28.9555 17.2763 29.0391C17.3241 29.0577 17.3664 29.0739 17.4046 29.0873C17.4422 29.1014 17.486 29.1166 17.5326 29.1327C17.533 29.1329 17.5335 29.1331 17.5338 29.1333V29.1333C17.5343 29.1336 17.5348 29.1338 17.5353 29.134L17.5428 29.1362L17.6163 29.1609L17.6898 29.1851L17.7005 29.1883L17.7674 29.209L17.8342 29.2292L17.8682 29.2397L17.9338 29.2583L18.0002 29.2769L18.0251 29.2834L18.0903 29.3008L18.1563 29.3177L18.1957 29.3274L18.2543 29.3416L18.3116 29.3553L18.3693 29.3679L18.4747 29.3905L18.5436 29.4043L18.5947 29.414L18.6445 29.4237L18.6984 29.433L18.7574 29.4435L18.8155 29.4532L18.8599 29.4597L18.9222 29.469L18.9832 29.4779L19.0193 29.4827C19.1629 29.5017 19.3086 29.5167 19.4551 29.5272L19.5415 29.5337L19.6265 29.5385C19.6268 29.5385 19.6271 29.5384 19.6274 29.5383V29.5383C19.6277 29.5382 19.628 29.5381 19.6283 29.5381H19.6291L19.6523 29.5397L19.7059 29.5421L19.759 29.5442L19.8325 29.5466L19.913 29.5482H19.9283L20.0031 29.549C20.0413 29.549 20.0666 29.549 20.0923 29.5486L20.099 29.5482L20.1766 29.5474L20.2725 29.545L20.3517 29.5417L20.4406 29.5377L20.5269 29.532L20.6191 29.5256L20.6992 29.5191L20.788 29.5106L20.854 29.5033L20.8706 29.5017L20.9669 29.4904L21.1329 29.4681C21.1684 29.4631 21.1927 29.4588 21.2144 29.4553C21.2189 29.4546 21.2233 29.4539 21.2276 29.4532L21.24 29.4508V29.4508C21.2409 29.4505 21.2417 29.4503 21.2426 29.4502L21.3073 29.4398C21.3592 29.4314 21.4036 29.4233 21.448 29.4144L21.4791 29.4087L21.5568 29.3933L21.6365 29.3764L21.7162 29.3582L21.7722 29.3452L21.827 29.3323L21.8847 29.3177L21.9113 29.3109L21.9943 29.289L22.069 29.2688L22.1699 29.2401L22.2388 29.2191C22.2657 29.2106 22.2927 29.2029 22.3363 29.1888L22.4135 29.1633L22.5086 29.1309L22.5825 29.1051L22.6754 29.0711L22.7531 29.0412L22.8465 29.0048L22.9208 28.9745L23.0104 28.9369L23.0893 28.9025L23.1785 28.862L23.2545 28.8269L23.3263 28.7921L23.3388 28.7864L23.3479 28.7816L23.3603 28.7759L23.4176 28.748L23.511 28.7003L23.5264 28.6922L23.5812 28.6639L23.6621 28.6207L23.7426 28.5758L23.8248 28.5289L23.9074 28.4799L23.9091 28.4787L23.9888 28.431L24.0694 28.3807C24.0696 28.3806 24.0699 28.3804 24.0702 28.3803V28.3803C24.0707 28.3802 24.0712 28.3799 24.0716 28.3795L24.0724 28.3787C24.0728 28.3783 24.0733 28.3779 24.0738 28.3776L24.149 28.3299L24.2283 28.2778L24.3068 28.2248L24.3806 28.1739L24.3835 28.1714C24.4836 28.1011 24.5836 28.0275 24.6824 27.9503L24.7538 27.8941L24.824 27.8367L24.8241 27.8365C24.8248 27.8358 24.8256 27.8352 24.8265 27.8346V27.8346C24.8273 27.8341 24.8281 27.8335 24.8288 27.8328L24.8298 27.8318L24.8978 27.7756L24.967 27.7167C24.9671 27.7166 24.9672 27.7165 24.9674 27.7165V27.7165C24.9678 27.7163 24.9681 27.7159 24.9682 27.7155L24.9682 27.7154C24.9684 27.7151 24.9685 27.7148 24.9688 27.7146C25.0347 27.6577 25.0989 27.6008 25.1618 27.5423L25.1988 27.5075L25.2353 27.4723C25.2356 27.4721 25.2359 27.4719 25.2362 27.4717V27.4717C25.2365 27.4716 25.2367 27.4715 25.2369 27.4713L25.2386 27.4699L25.3042 27.406L25.3672 27.3435C25.3676 27.3431 25.3679 27.3428 25.3683 27.3426V27.3426C25.3688 27.3423 25.3692 27.342 25.3695 27.3416C25.3996 27.3111 25.4289 27.2813 25.4578 27.2512L25.4752 27.2334L25.4923 27.2152L25.4935 27.2136L25.4948 27.2124L25.557 27.1464L25.616 27.0818L25.6176 27.0797L25.6766 27.0138L25.7335 26.9483C25.7337 26.948 25.7339 26.9478 25.7341 26.9475V26.9475C25.7342 26.9472 25.7344 26.947 25.7346 26.9468L25.7363 26.9447L25.7915 26.88L25.8459 26.8137L25.8538 26.804L25.9061 26.7389L25.9588 26.6718L25.9617 26.6681V26.6681C25.9877 26.6338 26.0354 26.6241 26.073 26.6451V26.6451L31.1675 29.51C31.2233 29.5414 31.2235 29.6217 31.1678 29.6533V29.6533L14.0274 39.2927C13.0021 39.8693 11.7859 39.8345 10.8245 39.3053L10.7706 39.2745L0.965641 33.7606C0.710358 33.6191 0.54183 33.4743 0.435566 33.2883C0.329718 33.1031 0.288208 32.882 0.286963 32.5888L0.286133 21.4247C0.328887 20.3835 0.901716 19.3852 1.89628 18.8256V18.8256Z" stroke="white" stroke-opacity="0.1" stroke-width="2" mask="url(#path-1-inside-1_22_1854)"/>
<path d="M19.9999 27.9808C16.7576 27.9808 14.1281 25.4058 14.1281 22.2308C14.1281 19.0559 16.7576 16.4808 19.9999 16.4808C23.2432 16.4808 25.8728 19.0559 25.8728 22.2308C25.8728 25.4058 23.2432 27.9808 19.9999 27.9808Z" stroke="white" stroke-opacity="0.1" stroke-width="2" mask="url(#path-1-inside-1_22_1854)"/>
</svg>
