<svg width="27" height="25" viewBox="0 0 27 25" fill="none" xmlns="http://www.w3.org/2000/svg">
<path d="M26.8125 12.5V22.125C26.8125 23.4519 25.7331 24.5312 24.4062 24.5312H20.2812C18.9544 24.5312 17.875 23.4519 17.875 22.125V12.5C17.875 11.1731 18.9544 10.0938 20.2812 10.0938H24.4062C25.7331 10.0938 26.8125 11.1731 26.8125 12.5ZM16.1562 22.4688H13.4062V19.0312H15.8125V12.5C15.8125 10.0387 17.82 8.03125 20.2812 8.03125H24.0625V4.25C24.0625 2.16 22.3713 0.46875 20.2812 0.46875H3.78125C1.69125 0.46875 0 2.16 0 4.25V15.25C0 17.34 1.69125 19.0312 3.78125 19.0312H9.28125V22.4688H6.53125C5.962 22.4688 5.5 22.9307 5.5 23.5C5.5 24.0693 5.962 24.5312 6.53125 24.5312H16.1562C16.7255 24.5312 17.1875 24.0693 17.1875 23.5C17.1875 22.9307 16.7255 22.4688 16.1562 22.4688Z" fill="#A8F600"/>
</svg>
