<svg width="32" height="33" viewBox="0 0 32 33" fill="none" xmlns="http://www.w3.org/2000/svg">
<path fill-rule="evenodd" clip-rule="evenodd" d="M28.7137 0.447773C29.5026 -0.196758 30.6408 -0.139395 31.3608 0.580546C32.0807 1.30049 32.1381 2.43873 31.4942 3.22706L25.5187 10.5502L21.3945 6.42599L28.7137 0.447773ZM21.4315 14.65C22.0619 14.4611 22.6297 14.0873 23.0532 13.5697L24.2885 12.0559L19.8879 7.65527L18.3803 8.88659C17.8615 9.3094 17.4864 9.87659 17.2969 10.5069C18.2933 10.7409 19.2073 11.2481 19.9491 11.99C20.7084 12.7493 21.2027 13.6742 21.4315 14.65ZM21.5149 16.6378C21.3667 17.8489 20.822 19.0032 19.9248 19.9004C18.8343 20.9916 17.31 21.5053 15.3957 21.428C14.0531 21.3745 13.4331 21.7257 13.3312 21.7896C12.92 22.1498 12.398 22.3471 11.8469 22.3471C11.2442 22.3471 10.6777 22.1125 10.2517 21.6864C9.51624 20.951 9.39765 19.8166 9.89974 18.9523L10.26 18.3813C10.3825 18.0828 10.5481 17.4937 10.5095 16.5417C10.4328 14.6268 10.9465 13.1032 12.037 12.0126C12.9303 11.1199 14.0725 10.5669 15.3074 10.4193C15.4821 9.57948 15.8604 8.79379 16.4063 8.13379H3.45246C2.02932 8.13379 0.871094 9.29137 0.871094 10.7145V23.5143H27.7998V10.8047L24.5275 14.815C23.7579 15.7554 22.6892 16.3954 21.5149 16.6378ZM0.871158 26.273C0.871158 27.6955 2.02939 28.8531 3.45252 28.8531H10.7886V31.0664H9.16252C8.62859 31.0664 8.19572 31.4993 8.19572 32.0332C8.19572 32.5671 8.62859 33 9.16252 33H19.5081C20.0421 33 20.4749 32.5671 20.4749 32.0332C20.4749 31.4993 20.0421 31.0664 19.5081 31.0664H17.8821V28.8531H25.2184C26.6415 28.8531 27.7998 27.6955 27.7998 26.273V25.448H0.871094V26.273H0.871158ZM11.6403 19.8414L11.6408 19.8409L11.6412 19.8405C11.6486 19.8329 12.5613 18.8592 12.4641 16.4411C12.4097 15.0881 12.7337 14.0506 13.427 13.3573C14.1152 12.669 15.0302 12.29 16.0036 12.29C16.9769 12.29 17.8919 12.6691 18.5801 13.3573C20.0009 14.7781 20.0009 17.0897 18.5801 18.5105C17.8868 19.2037 16.8494 19.5279 15.4963 19.4733C13.0913 19.3767 12.115 20.2792 12.0953 20.2979C12.0326 20.3597 11.9509 20.3906 11.8691 20.3906C11.7866 20.3906 11.7042 20.3591 11.6412 20.2962C11.5166 20.1716 11.5154 19.9703 11.6376 19.8441L11.6379 19.8438L11.638 19.8438L11.6383 19.8434L11.6384 19.8434L11.6387 19.843L11.6387 19.843L11.639 19.8427L11.6391 19.8426L11.6394 19.8423L11.6398 19.8419L11.64 19.8417L11.6403 19.8414Z" fill="#A8F600"/>
</svg>
