<svg width="27" height="27" viewBox="0 0 27 27" fill="none" xmlns="http://www.w3.org/2000/svg">
<path d="M25.4194 16.0685C24.4899 15.5323 23.9358 14.5711 23.9358 13.5C23.9358 12.4289 24.4899 11.4664 25.4208 10.9301C25.8182 10.7005 26.1014 10.3292 26.2211 9.8865C26.3393 9.44375 26.2775 8.98038 26.0478 8.583L23.9867 5.01213C23.5123 4.1885 22.4577 3.90663 21.6382 4.381C20.7101 4.91862 19.6018 4.92 18.6709 4.381C17.7428 3.84475 17.1887 2.885 17.1887 1.8125C17.1887 0.865125 16.4173 0.09375 15.4699 0.09375H11.3449C10.3976 0.09375 9.6262 0.865125 9.6262 1.8125C9.6262 2.885 9.07207 3.84613 8.14395 4.381C7.21582 4.91862 6.10895 4.91862 5.17532 4.381C4.35307 3.91075 3.30257 4.19125 2.82957 5.01213L0.768449 8.583C0.537449 8.98038 0.475574 9.44375 0.593824 9.88788C0.713449 10.3306 0.996699 10.7019 1.39545 10.9329C2.32495 11.4691 2.87907 12.4303 2.87907 13.5014C2.87907 14.5725 2.32495 15.535 1.39407 16.0712C0.996699 16.3009 0.713449 16.6721 0.593824 17.1149C0.475574 17.559 0.537449 18.0224 0.767074 18.4184L2.8282 21.9893C3.30257 22.8115 4.35307 23.0934 5.1767 22.6204C6.10482 22.0841 7.21307 22.0828 8.14395 22.6204C9.07207 23.1566 9.6262 24.1164 9.6262 25.1889C9.6262 26.1362 10.3976 26.9076 11.3449 26.9076H15.4699C16.4173 26.9076 17.1887 26.1362 17.1887 25.1889C17.1887 24.1164 17.7428 23.1553 18.6709 22.6204C19.5991 22.0855 20.7059 22.0841 21.6396 22.6204C22.4604 23.0879 23.5123 22.8088 23.9853 21.9893L26.0464 18.4184C26.2774 18.021 26.3393 17.5576 26.2211 17.1135C26.1014 16.6707 25.8182 16.2995 25.4194 16.0685ZM13.4074 18.6562C10.5653 18.6562 8.2512 16.3421 8.2512 13.5C8.2512 10.6579 10.5653 8.34375 13.4074 8.34375C16.2496 8.34375 18.5637 10.6579 18.5637 13.5C18.5637 16.3421 16.2496 18.6562 13.4074 18.6562ZM16.5012 13.5C16.5012 15.205 15.1124 16.5938 13.4074 16.5938C11.7024 16.5938 10.3137 15.205 10.3137 13.5C10.3137 11.795 11.7024 10.4062 13.4074 10.4062C15.1124 10.4062 16.5012 11.795 16.5012 13.5Z" fill="#A8F600"/>
</svg>
